# xmcd
#
# Track frame offsets:
#	150
#	12496
#	23176
#	35213
#	44806
#	55335
#	66591
#	77536
#	90762
#	101967
#	113094
#	126665
#	137918
#	148500
#	161213
#
# Disc length: 2299 seconds
#
# Revision: 1
# Processed by: cddbd v1.5.1PL2 Copyright (c) Steve Scherf et al.
# Submitted via: audiograbber 1.83.01
#
DISCID=e208f90f
DTITLE=Various Artist - Classic Country 1950-1959 Disc 2
DYEAR=1900
DGENRE=Country
TTITLE0=Geoge Jones - White Lightning
TTITLE1=Webb Pierce - There Stands The Glass
TTITLE2=Hank Williams - Your Cheatin Heart
TTITLE3=Elvis Presley - Heartbreak Hotel
TTITLE4=Everly Brothers - Bye Bye Love
TTITLE5=Don Gibson - Oh Lonesome Me
TTITLE6=Stonewall Jackson - Waterloo
TTITLE7=Ray Price - Heartaches By The Number
TTITLE8=Kitty Wells - It Wasn't God
TTITLE9=Marty Robbins - A White Sport Coat
TTITLE10=Patti Page - Tennessee Waltz
TTITLE11=Eddy Arnold - Cattle Call
TTITLE12=Ferlin Husky - Gone
TTITLE13=Jim Reeves - Four Walls
TTITLE14=Hank Locklin - Send Me The Pillow You Dream On
EXTD=
EXTT0=
EXTT1=
EXTT2=
EXTT3=
EXTT4=
EXTT5=
EXTT6=
EXTT7=
EXTT8=
EXTT9=
EXTT10=
EXTT11=
EXTT12=
EXTT13=
EXTT14=
PLAYORDER=
